<svg width="200" height="36" viewBox="0 0 200 36" fill="none" xmlns="http://www.w3.org/2000/svg">
<g clip-path="url(#clip0_0_1)">
<rect x="145" y="4" width="45" height="29" rx="5" stroke="#1890FF" stroke-width="5"/>
<path d="M158 24.2066V11.8985C158 10.4987 159.401 9.53192 160.71 10.0288L177.804 16.5185C179.557 17.1837 179.513 19.6776 177.739 20.2816L160.644 26.0999C159.347 26.5415 158 25.577 158 24.2066Z" fill="#FF802B"/>
<path d="M15.6999 29L14.2999 24.352H7.77591L6.37591 29H2.06391L8.50391 9.456H13.7679L20.1239 29H15.6999ZM11.0799 13.32H10.9399L8.78391 20.74H13.2639L11.0799 13.32ZM28.7359 29.336C27.6159 29.336 26.6172 29.1587 25.7399 28.804C24.8625 28.4307 24.1159 27.9173 23.4999 27.264C22.9025 26.592 22.4452 25.78 22.1279 24.828C21.8292 23.876 21.6799 22.812 21.6799 21.636C21.6799 20.4787 21.8292 19.4333 22.1279 18.5C22.4265 17.548 22.8652 16.736 23.4439 16.064C24.0412 15.392 24.7692 14.8787 25.6279 14.524C26.4865 14.1507 27.4665 13.964 28.5679 13.964C29.7812 13.964 30.8172 14.1693 31.6759 14.58C32.5532 14.9907 33.2625 15.5413 33.8039 16.232C34.3639 16.9227 34.7652 17.7253 35.0079 18.64C35.2692 19.536 35.3999 20.4787 35.3999 21.468V22.7H25.9639V22.924C25.9639 23.8947 26.2252 24.6693 26.7479 25.248C27.2705 25.808 28.0919 26.088 29.2119 26.088C30.0705 26.088 30.7705 25.92 31.3119 25.584C31.8532 25.2293 32.3572 24.8093 32.8239 24.324L34.8959 26.9C34.2425 27.6653 33.3839 28.2627 32.3199 28.692C31.2745 29.1213 30.0799 29.336 28.7359 29.336ZM28.6519 17.016C27.8119 17.016 27.1492 17.296 26.6639 17.856C26.1972 18.3973 25.9639 19.1253 25.9639 20.04V20.264H31.1159V20.012C31.1159 19.116 30.9105 18.3973 30.4999 17.856C30.1079 17.296 29.4919 17.016 28.6519 17.016ZM51.9345 30.064C51.9345 30.848 51.7945 31.5387 51.5145 32.136C51.2532 32.7333 50.8145 33.2373 50.1985 33.648C49.5825 34.0773 48.7612 34.3947 47.7345 34.6C46.7265 34.824 45.4759 34.936 43.9825 34.936C42.7132 34.936 41.6305 34.852 40.7345 34.684C39.8572 34.5347 39.1385 34.3107 38.5785 34.012C38.0372 33.732 37.6359 33.3773 37.3745 32.948C37.1319 32.5373 37.0105 32.0613 37.0105 31.52C37.0105 30.6987 37.2532 30.0547 37.7385 29.588C38.2239 29.1213 38.8959 28.832 39.7545 28.72V28.412C39.0452 28.2813 38.5132 27.9827 38.1585 27.516C37.8039 27.0307 37.6265 26.4707 37.6265 25.836C37.6265 25.444 37.7012 25.108 37.8505 24.828C38.0185 24.5293 38.2239 24.2773 38.4665 24.072C38.7279 23.848 39.0265 23.6707 39.3625 23.54C39.6985 23.4093 40.0345 23.3067 40.3705 23.232V23.12C39.4745 22.7093 38.8119 22.1493 38.3825 21.44C37.9532 20.712 37.7385 19.872 37.7385 18.92C37.7385 17.4267 38.2519 16.232 39.2785 15.336C40.3239 14.4213 41.9105 13.964 44.0385 13.964C45.0092 13.964 45.8399 14.0573 46.5305 14.244V13.684C46.5305 12.9 46.7172 12.34 47.0905 12.004C47.4825 11.6493 48.0332 11.472 48.7425 11.472H51.0665V14.552H47.8185V14.72C48.6772 15.1307 49.3119 15.7 49.7225 16.428C50.1332 17.1373 50.3385 17.968 50.3385 18.92C50.3385 20.3947 49.8159 21.58 48.7705 22.476C47.7439 23.3533 46.1665 23.792 44.0385 23.792C43.0865 23.792 42.2185 23.6893 41.4345 23.484C41.0052 23.764 40.7905 24.156 40.7905 24.66C40.7905 25.0147 40.9212 25.2947 41.1825 25.5C41.4625 25.6867 41.9199 25.78 42.5545 25.78H46.8105C48.6025 25.78 49.8999 26.1533 50.7025 26.9C51.5239 27.6467 51.9345 28.7013 51.9345 30.064ZM48.0425 30.624C48.0425 30.1947 47.8745 29.868 47.5385 29.644C47.2025 29.42 46.6145 29.308 45.7745 29.308H40.7345C40.5479 29.4947 40.4079 29.7 40.3145 29.924C40.2399 30.1667 40.2025 30.4 40.2025 30.624C40.2025 31.1653 40.4359 31.5573 40.9025 31.8C41.3692 32.0613 42.1625 32.192 43.2825 32.192H44.9625C46.0825 32.192 46.8759 32.0613 47.3425 31.8C47.8092 31.5573 48.0425 31.1653 48.0425 30.624ZM44.0385 21.076C44.8599 21.076 45.4665 20.908 45.8585 20.572C46.2692 20.2173 46.4745 19.7133 46.4745 19.06V18.724C46.4745 18.0707 46.2692 17.576 45.8585 17.24C45.4665 16.8853 44.8599 16.708 44.0385 16.708C43.2172 16.708 42.6012 16.8853 42.1905 17.24C41.7985 17.576 41.6025 18.0707 41.6025 18.724V19.06C41.6025 19.7133 41.7985 20.2173 42.1905 20.572C42.6012 20.908 43.2172 21.076 44.0385 21.076ZM55.8478 12.732C55.0078 12.732 54.3918 12.5453 53.9998 12.172C53.6264 11.78 53.4398 11.2853 53.4398 10.688V10.072C53.4398 9.47467 53.6264 8.98933 53.9998 8.616C54.3918 8.224 55.0078 8.028 55.8478 8.028C56.6878 8.028 57.2944 8.224 57.6678 8.616C58.0598 8.98933 58.2558 9.47467 58.2558 10.072V10.688C58.2558 11.2853 58.0598 11.78 57.6678 12.172C57.2944 12.5453 56.6878 12.732 55.8478 12.732ZM53.7758 14.3H57.9198V29H53.7758V14.3ZM66.7715 29.336C65.3528 29.336 64.1581 29.112 63.1875 28.664C62.2168 28.1973 61.3488 27.544 60.5835 26.704L63.0195 24.24C63.5421 24.8187 64.1208 25.276 64.7555 25.612C65.3901 25.948 66.1088 26.116 66.9115 26.116C67.7328 26.116 68.3021 25.9947 68.6195 25.752C68.9368 25.4907 69.0955 25.1453 69.0955 24.716C69.0955 24.0253 68.6008 23.6147 67.6115 23.484L66.0155 23.288C62.7115 22.8773 61.0595 21.3653 61.0595 18.752C61.0595 18.0427 61.1901 17.3987 61.4515 16.82C61.7315 16.2227 62.1141 15.7187 62.5995 15.308C63.1035 14.8787 63.7008 14.552 64.3915 14.328C65.1008 14.0853 65.8941 13.964 66.7715 13.964C67.5368 13.964 68.2088 14.02 68.7875 14.132C69.3848 14.2253 69.9075 14.3747 70.3555 14.58C70.8221 14.7667 71.2421 15.0093 71.6155 15.308C72.0075 15.588 72.3901 15.9053 72.7635 16.26L70.3835 18.696C69.9168 18.2293 69.3848 17.8653 68.7875 17.604C68.2088 17.324 67.6115 17.184 66.9955 17.184C66.2861 17.184 65.7821 17.296 65.4835 17.52C65.1848 17.744 65.0355 18.0427 65.0355 18.416C65.0355 18.808 65.1381 19.116 65.3435 19.34C65.5675 19.5453 65.9781 19.6947 66.5755 19.788L68.2275 20.012C71.4568 20.4413 73.0715 21.916 73.0715 24.436C73.0715 25.1453 72.9221 25.7987 72.6235 26.396C72.3248 26.9933 71.8955 27.516 71.3355 27.964C70.7941 28.3933 70.1315 28.7293 69.3475 28.972C68.5821 29.2147 67.7235 29.336 66.7715 29.336Z" fill="#1890FF"/>
<path d="M84.2688 13.236V29H80.0128V13.236H74.7208V9.456H89.5608V13.236H84.2688ZM99.6706 26.536H99.5306C99.3999 26.9093 99.2226 27.264 98.9986 27.6C98.7933 27.936 98.5226 28.2347 98.1866 28.496C97.8506 28.7573 97.4493 28.9627 96.9826 29.112C96.5346 29.2613 96.0119 29.336 95.4146 29.336C93.9026 29.336 92.7546 28.8413 91.9706 27.852C91.2053 26.844 90.8226 25.4067 90.8226 23.54V14.3H94.9666V23.176C94.9666 24.072 95.1253 24.7627 95.4426 25.248C95.7599 25.7333 96.3013 25.976 97.0666 25.976C97.3839 25.976 97.7013 25.9293 98.0186 25.836C98.3359 25.7427 98.6159 25.612 98.8586 25.444C99.1013 25.2573 99.2973 25.0333 99.4466 24.772C99.5959 24.5107 99.6706 24.2027 99.6706 23.848V14.3H103.815V29H99.6706V26.536ZM107.67 8.28H111.814V16.764H111.954C112.16 15.9427 112.626 15.2707 113.354 14.748C114.101 14.2253 114.95 13.964 115.902 13.964C117.769 13.964 119.178 14.6173 120.13 15.924C121.082 17.2307 121.558 19.1347 121.558 21.636C121.558 24.1373 121.082 26.0507 120.13 27.376C119.178 28.6827 117.769 29.336 115.902 29.336C115.417 29.336 114.96 29.2613 114.53 29.112C114.101 28.9813 113.709 28.7947 113.354 28.552C113.018 28.2907 112.729 27.992 112.486 27.656C112.244 27.3013 112.066 26.928 111.954 26.536H111.814V29H107.67V8.28ZM114.53 25.976C115.314 25.976 115.958 25.7053 116.462 25.164C116.985 24.604 117.246 23.8573 117.246 22.924V20.376C117.246 19.4427 116.985 18.7053 116.462 18.164C115.958 17.604 115.314 17.324 114.53 17.324C113.746 17.324 113.093 17.52 112.57 17.912C112.066 18.2853 111.814 18.808 111.814 19.48V23.82C111.814 24.492 112.066 25.024 112.57 25.416C113.093 25.7893 113.746 25.976 114.53 25.976ZM130.837 29.336C129.717 29.336 128.719 29.1587 127.841 28.804C126.964 28.4307 126.217 27.9173 125.601 27.264C125.004 26.592 124.547 25.78 124.229 24.828C123.931 23.876 123.781 22.812 123.781 21.636C123.781 20.4787 123.931 19.4333 124.229 18.5C124.528 17.548 124.967 16.736 125.545 16.064C126.143 15.392 126.871 14.8787 127.729 14.524C128.588 14.1507 129.568 13.964 130.669 13.964C131.883 13.964 132.919 14.1693 133.777 14.58C134.655 14.9907 135.364 15.5413 135.905 16.232C136.465 16.9227 136.867 17.7253 137.109 18.64C137.371 19.536 137.501 20.4787 137.501 21.468V22.7H128.065V22.924C128.065 23.8947 128.327 24.6693 128.849 25.248C129.372 25.808 130.193 26.088 131.313 26.088C132.172 26.088 132.872 25.92 133.413 25.584C133.955 25.2293 134.459 24.8093 134.925 24.324L136.997 26.9C136.344 27.6653 135.485 28.2627 134.421 28.692C133.376 29.1213 132.181 29.336 130.837 29.336ZM130.753 17.016C129.913 17.016 129.251 17.296 128.765 17.856C128.299 18.3973 128.065 19.1253 128.065 20.04V20.264H133.217V20.012C133.217 19.116 133.012 18.3973 132.601 17.856C132.209 17.296 131.593 17.016 130.753 17.016Z" fill="#FF802B"/>
</g>
<defs>
<clipPath id="clip0_0_1">
<rect width="200" height="36" fill="white"/>
</clipPath>
</defs>
</svg>
